<svg width="400" height="140" xmlns="http://www.w3.org/2000/svg" preserveAspectRatio="none">

 <g>
  <title>background</title>
  <rect fill="none" id="canvas_background" height="142" width="402" y="-1" x="-1"/>
 </g>
 <g>
  <title>Layer 1</title>
  <g display="inline" transform="rotate(6 35.7708129882814,69.86218261718746) translate(243.7880859375,301.640625) scale(1) " id="shape_RRm47D3nfj">
   <g id="svg_15" display="inline">
    <rect id="svg_16" y="-269" x="-235" height="74.443088" width="53.965425" fill="rgba(0,0,0,0)"/>
    <g id="svg_2">
     <svg preserveAspectRatio="none" class="style-removed" viewBox="44.64884567260742 8.5 110.72514343261719 177.4810333251953" height="54.443088" width="33.965425" y="-259" x="-225" id="svg_1" xmlns:xlink="http://www.w3.org/1999/xlink">
      <path id="svg_17" stroke-width="0" fill="#3449E4" d="m71.1,8.5c0,0 -50.1,59 -12.4,127.8c32.9,59.9 85,55.5 93.9,38.9c9.2,-17.3 -5.2,-34.9 -32.6,-49.6c-23.6,-12.8 -55.5,-49.7 -48.9,-117.1z"/>
     </svg>
    </g>
   </g>
  </g>
  <g display="inline" transform="rotate(288 57.83386230468751,98.07202148437501) translate(265.8511657714844,329.72418212890625) scale(1) " id="shape_morgLYUOer">
   <g id="svg_18" display="inline">
    <rect id="svg_19" y="-269" x="-235" height="74.695655" width="53.965425" fill="rgba(0,0,0,0)"/>
    <g id="svg_4">
     <svg preserveAspectRatio="none" class="style-removed" viewBox="44.64884567260742 8.5 110.72514343261719 177.4810333251953" height="54.695655" width="33.965425" y="-259" x="-225" id="svg_3" xmlns:xlink="http://www.w3.org/1999/xlink">
      <path id="svg_20" stroke-width="0" fill="#3449E4" d="m71.1,8.5c0,0 -50.1,59 -12.4,127.8c32.9,59.9 85,55.5 93.9,38.9c9.2,-17.3 -5.2,-34.9 -32.6,-49.6c-23.6,-12.8 -55.5,-49.7 -48.9,-117.1z"/>
     </svg>
    </g>
   </g>
  </g>
  <g display="inline" transform="rotate(208 88.77517700195311,87.53723144531251) translate(298.35821533203125,321.8254089355469) scale(1) " id="shape_x3Jb9fxuu4">
   <g id="svg_21" display="inline">
    <rect id="svg_22" y="-269" x="-235" height="69.423636" width="50.833938" fill="rgba(0,0,0,0)"/>
    <g id="svg_6">
     <svg preserveAspectRatio="none" class="style-removed" viewBox="44.64884567260742 8.5 110.72514343261719 177.4810333251953" height="49.423636" width="30.833938" y="-259" x="-225" id="svg_5" xmlns:xlink="http://www.w3.org/1999/xlink">
      <path id="svg_23" stroke-width="0" fill="#3449E4" d="m71.1,8.5c0,0 -50.1,59 -12.4,127.8c32.9,59.9 85,55.5 93.9,38.9c9.2,-17.3 -5.2,-34.9 -32.6,-49.6c-23.6,-12.8 -55.5,-49.7 -48.9,-117.1z"/>
     </svg>
    </g>
   </g>
  </g>
  <g display="inline" transform="rotate(90 61.55364990234375,39.53637695312501) translate(269.5709228515625,271.3148193359375) scale(1) " id="shape_A8gxevw7JE">
   <g id="svg_24" display="inline">
    <rect id="svg_25" y="-269" x="-235" height="74.443088" width="53.965425" fill="rgba(0,0,0,0)"/>
    <g id="svg_8">
     <svg preserveAspectRatio="none" class="style-removed" viewBox="44.64884567260742 8.5 110.72514343261719 177.4810333251953" height="54.443088" width="33.965425" y="-259" x="-225" id="svg_7" xmlns:xlink="http://www.w3.org/1999/xlink">
      <path id="svg_26" stroke-width="0" fill="#3449E4" d="m71.1,8.5c0,0 -50.1,59 -12.4,127.8c32.9,59.9 85,55.5 93.9,38.9c9.2,-17.3 -5.2,-34.9 -32.6,-49.6c-23.6,-12.8 -55.5,-49.7 -48.9,-117.1z"/>
     </svg>
    </g>
   </g>
  </g>
  <g display="inline" transform="rotate(158 90.86993408203124,56.446319580078125) translate(300.75823974609375,291.2238464355469) scale(1) " id="shape_OaCGqkuIFv">
   <g id="svg_27" display="inline">
    <rect id="svg_28" y="-269" x="-235" height="68.444948" width="50.223364" fill="rgba(0,0,0,0)"/>
    <g id="svg_10">
     <svg preserveAspectRatio="none" class="style-removed" viewBox="44.64884567260742 8.5 110.72514343261719 177.4810333251953" height="48.444948" width="30.223364" y="-259" x="-225" id="svg_9" xmlns:xlink="http://www.w3.org/1999/xlink">
      <path id="svg_29" stroke-width="0" fill="#3449E4" d="m71.1,8.5c0,0 -50.1,59 -12.4,127.8c32.9,59.9 85,55.5 93.9,38.9c9.2,-17.3 -5.2,-34.9 -32.6,-49.6c-23.6,-12.8 -55.5,-49.7 -48.9,-117.1z"/>
     </svg>
    </g>
   </g>
  </g>
  <g display="inline" transform="translate(277.4747619628906,315.5190734863281) scale(1) " id="shape_jNEfXS9ntS">
   <g id="svg_30" display="inline">
    <rect id="svg_31" y="-269" x="-235" height="46.687699" width="41.375752" fill="rgba(0,0,0,0)"/>
    <g id="svg_12">
     <svg preserveAspectRatio="none" class="style-removed" viewBox="71.0172119140625 61 49.57936096191406 61.900001525878906" height="26.687699" width="21.375752" y="-259" x="-225" id="svg_11" xmlns:xlink="http://www.w3.org/1999/xlink">
      <path id="svg_32" stroke-width="0" fill="#3449E4" d="m120.5,96.4c-1.3,-16.4 -16.3,-20.1 -24.7,-35.4c-8.4,15.3 -23.4,19 -24.7,35.4c-1.2,14.7 10.9,25 19.7,26c2.3,0.3 3.3,0.4 5,0.5c1.7,-0.1 2.7,-0.2 5,-0.5c8.9,-1.1 21,-11.3 19.7,-26z"/>
     </svg>
    </g>
   </g>
  </g>
  <g display="inline" transform="translate(324.5296936035156,282.64447021484375) scale(1) " id="shape_lYhR8TYtXM">
   <g id="svg_13" display="inline">
    <svg y="-259" x="-225" id="svg_33" preserveAspectRatio="none" viewBox="0 0 273 174.06" height="174.06" width="273" xmlns:xlink="http://www.w3.org/1999/xlink">
     <rect id="svg_34" y="75.03" x="24.75" height="24" width="174" fill="rgba(0,0,0,0)"/>
     <g id="svg_35">
      <path id="svg_36" stroke-width="0.041" stroke="#000000" fill="#000000" d="m36.09,75.409999l0,0l2.03,0q0,0.13 0,0.25l0,0q-0.03,1.34 -0.18,3.34l0,0q0.13,1.17 0.58,3.38q0.46,2.22 1.58,4.85q1.11,2.64 3.15,5.04q2.04,2.4 5.28,3.91l0,0q-0.39,0.32 -0.75,0.74q-0.36,0.42 -0.58,0.82l0,0q-3.07,-1.49 -5.09,-3.79q-2.01,-2.3 -3.19,-4.89q-1.18,-2.58 -1.75,-4.93l0,0q-0.79,3.81 -3.05,7.51q-2.27,3.7 -6.75,6.2l0,0q-0.54,-0.8 -1.48,-1.44l0,0q3.69,-1.93 5.78,-4.75q2.09,-2.82 3.02,-5.88q0.93,-3.06 1.16,-5.7q0.24,-2.65 0.24,-4.26l0,0q0,-0.2 0,-0.4z"/>
      <path id="svg_37" stroke-width="0.041" stroke="#000000" fill="#000000" d="m62.82,79.989999l0,14.21l10.12,0l0,1.83l-22.08,0l0,-1.83l9.95,0l0,-14.21l-8.66,0l0,-1.88l19.55,0l0,1.88l-8.88,0z"/>
      <path id="svg_38" stroke-width="0.041" stroke="#000000" fill="#000000" d="m86.5,85.879999l0,0l-1.29,1.26q-0.59,-0.49 -1.69,-1.29q-1.1,-0.81 -2.09,-1.48l0,0q-1.14,2.16 -4.93,3.99l0,0q-0.17,-0.32 -0.51,-0.68q-0.33,-0.36 -0.65,-0.58l0,0q2.33,-0.95 3.48,-2.1q1.15,-1.15 1.49,-2.29l0,0l-4.75,0l0,-1.51l5.08,0q0.05,-0.44 0.05,-0.89l0,0l0,-1.43l-2.08,0q-0.72,1.29 -1.56,2.2l0,0q-0.28,-0.2 -0.71,-0.46q-0.43,-0.26 -0.78,-0.43l0,0q1.93,-1.98 2.8,-4.93l0,0l1.66,0.33q-0.28,0.91 -0.67,1.8l0,0l6.73,0l0,1.49l-3.64,0l0,1.43q0,0.45 -0.05,0.89l0,0l4.31,0l0,1.51l-4.58,0q-0.02,0.18 -0.1,0.33l0,0q0,0.05 -0.02,0.1l0,0q0.52,0.27 1.44,0.82q0.93,0.56 1.8,1.11q0.87,0.54 1.26,0.81zm5.89,5.74l0,-2.32l-11.43,0l0,2.32l11.43,0zm-11.43,1.44l0,2.45l11.43,0l0,-2.45l-11.43,0zm0,4.88l-1.81,0l0,-10.15l15.1,0l0,10.1l-1.86,0l0,-0.87l-11.43,0l0,0.92zm8.49,-13.72l5.1,0l0,-5.24l-5.1,0l0,5.24zm-1.74,1.69l0,-8.59l8.64,0l0,8.59l-8.64,0z"/>
      <path id="svg_39" stroke-width="0.041" stroke="#000000" fill="#000000" d="m119.81,86.129999l0,0l-4.25,0q-1.73,0 -2.33,-0.53q-0.59,-0.53 -0.59,-2.04l0,0l0,-8.17l1.78,0l0,4.13q3.39,-1.14 5.74,-2.32l0,0l1.24,1.33q-3.17,1.39 -6.98,2.5l0,0l0,2.5q0,0.57 0.23,0.76q0.24,0.18 1.08,0.18l0,0l3.94,0q0.71,0 0.94,-0.54q0.22,-0.55 0.29,-2.33l0,0q0.3,0.25 0.77,0.43q0.47,0.19 0.87,0.29l0,0q-0.13,2.18 -0.7,2.99q-0.56,0.82 -2.03,0.82zm-16.53,3.07l0,2.25l5.22,0l0,-2.25l-5.22,0zm5.22,-1.46l0,-2.11l-5.22,0l0,2.11l5.22,0zm-6.93,-3.66l8.74,0l0,11.73q0,0.69 -0.17,1.1q-0.18,0.41 -0.7,0.63l0,0q-0.49,0.22 -1.31,0.27q-0.81,0.05 -1.98,0.05l0,0q-0.07,-0.39 -0.23,-0.85q-0.16,-0.46 -0.36,-0.83l0,0q0.89,0.02 1.58,0.02q0.7,0 0.94,-0.02l0,0q0.28,0 0.35,-0.08q0.07,-0.07 0.07,-0.32l0,0l0,-2.89l-5.22,0l0,5.02l-1.71,0l0,-13.83zm5.18,-6.66l0,0l1.51,-0.62q0.99,1.29 1.87,2.75q0.87,1.46 1.29,2.6l0,0l-1.6,0.71q-0.23,-0.59 -0.55,-1.31l0,0q-2.5,0.17 -4.03,0.31q-1.54,0.14 -2.37,0.21q-0.83,0.08 -1.2,0.15q-0.37,0.07 -0.54,0.15l0,0q-0.08,-0.32 -0.25,-0.84q-0.17,-0.52 -0.35,-0.89l0,0q0.55,-0.18 1.14,-0.97l0,0q0.37,-0.45 1.15,-1.68q0.78,-1.24 1.43,-2.73l0,0l1.88,0.6q-1.34,2.55 -3.02,4.63l0,0l5.42,-0.32q-0.84,-1.49 -1.78,-2.75zm9.06,18.66l0,0l3.98,0q0.77,0 1.01,-0.62q0.25,-0.62 0.33,-2.62l0,0q0.32,0.22 0.78,0.41q0.45,0.18 0.85,0.26l0,0q-0.12,2.45 -0.71,3.32q-0.58,0.88 -2.11,0.88l0,0l-4.31,0q-1.78,0 -2.39,-0.54q-0.6,-0.55 -0.6,-2.06l0,0l0,-8.29l1.8,0l0,3.89q3.64,-1.14 6.02,-2.58l0,0l1.21,1.37q-3.14,1.68 -7.23,2.74l0,0l0,2.87q0,0.62 0.26,0.8q0.26,0.17 1.11,0.17z"/>
      <path id="svg_40" stroke-width="0.041" stroke="#000000" fill="#000000" d="m137.02,81.529999l0,6.56l7.1,0l0,-6.56l-7.1,0zm-8.99,0l0,6.56l7.08,0l0,-6.56l-7.08,0zm8.99,-6.22l0,4.41l8.98,0l0,11.58l-1.88,0l0,-1.41l-7.1,0l0,8.02l-1.91,0l0,-8.02l-7.08,0l0,1.54l-1.8,0l0,-11.71l8.88,0l0,-4.41l1.91,0z"/>
      <path id="svg_41" stroke-width="0.041" stroke="#000000" fill="#000000" d="m162.81,78.979999l0,0l-2.01,0.64q-0.25,-0.79 -0.75,-1.87q-0.51,-1.07 -1.08,-2.02l0,0l1.91,-0.54q0.56,0.89 1.11,1.93q0.54,1.04 0.82,1.86zm3.24,2.5l0,0l-10.5,0q1.93,4.75 5.4,8.29l0,0q3.27,-3.32 5.1,-8.29zm5.96,-1.81l0,1.81l-3.88,0q-2.11,5.81 -5.79,9.58l0,0q4.08,3.51 9.99,5.02l0,0q-0.34,0.32 -0.69,0.8q-0.35,0.49 -0.57,0.91l0,0q-6.04,-1.71 -10.15,-5.42l0,0q-4.13,3.59 -10.29,5.52l0,0q-0.17,-0.37 -0.51,-0.87q-0.33,-0.5 -0.63,-0.84l0,0q6.09,-1.73 10.1,-5.12l0,0q-3.81,-3.96 -5.94,-9.58l0,0l-3.81,0l0,-1.81l22.17,0z"/>
      <path id="svg_42" stroke-width="0.041" stroke="#000000" fill="#000000" d="m185.77,90.909999l0,0l-1.21,1.18q-0.74,-1.36 -1.88,-3.14l0,0q-1.46,3.49 -3.69,5.87l0,0q-0.22,-0.2 -0.67,-0.51q-0.44,-0.31 -0.76,-0.51l0,0q2.55,-2.52 3.96,-6.48l0,0q-1.69,-2.43 -3.42,-4.53l0,0l1.14,-1.02q1.46,1.71 2.9,3.67l0,0q0.69,-2.45 1.11,-5.18l0,0l1.68,0.18q-0.59,3.61 -1.58,6.68l0,0q1.48,2.13 2.42,3.79zm7.21,0.86l0,0l-1.29,1.07q-0.74,-1.64 -2.03,-3.76l0,0q-1.46,3.51 -3.76,5.94l0,0q-0.27,-0.23 -0.7,-0.54q-0.42,-0.31 -0.76,-0.48l0,0q2.69,-2.52 4.13,-6.66l0,0q-1.63,-2.4 -3.37,-4.55l0,0l1.19,-0.92q1.44,1.66 2.77,3.57l0,0q0.7,-2.43 1.07,-5.13l0,0l1.66,0.18q-0.55,3.64 -1.54,6.68l0,0q1.69,2.55 2.63,4.6zm-17.45,-14.95l20.27,0l0,18.67q0,0.86 -0.26,1.34q-0.26,0.49 -0.86,0.71l0,0q-1.09,0.4 -4.35,0.32l0,0q-0.08,-0.39 -0.29,-0.91q-0.21,-0.52 -0.41,-0.92l0,0q2.26,0.07 3.42,0.05l0,0q0.2,0 0.3,0l0,0q0.64,0.02 0.64,-0.59l0,0l0,-16.93l-16.63,0l0,19.33l-1.83,0l0,-21.07z"/>
     </g>
    </svg>
   </g>
  </g>
  <g display="inline" transform="translate(271.7290344238281,61.88525390625) scale(1) " id="shape_WEZlRxmOWR">
   <g id="svg_14" display="inline">
    <svg y="-259" x="-225" id="svg_43" preserveAspectRatio="none" viewBox="0 0 561.96 511.33682" height="511.33682" width="561.96" xmlns:xlink="http://www.w3.org/1999/xlink">
     <rect id="svg_44" y="219.66841" x="72.99" height="72" width="270" fill="rgba(0,0,0,0)"/>
     <g id="svg_45">
      <path id="svg_46" stroke-width="0.122" stroke="#000000" fill="#000000" d="m96.639998,263.198396l-8.32,0l0,18.47l-10.37,0l0,-48.68l23.8,0q10.22,0 14.23,2.62l0,0q2.77,1.76 4.27,4.64q1.5,2.88 1.5,6.31l0,0q0,6.94 -3.51,10.73l0,0q-2.19,2.26 -5.76,3.43l0,0q2.84,1.02 4.3,2.16q1.46,1.13 2.63,3.32l0,0q0.88,1.75 1.28,3.35q0.4,1.61 0.62,4.75l0,0q0.44,5.25 1.17,7.37l0,0l-11.61,0q-0.51,-1.68 -1.09,-6.93l0,0q-0.37,-4.24 -1.5,-6.5q-1.13,-2.26 -3.39,-3.58l0,0q-2.85,-1.53 -8.25,-1.46l0,0zm-8.32,-21.53l0,12.85l14.52,0q3.65,0 5.19,-1.1l0,0q2.33,-1.6 2.33,-5.62l0,0q0,-4.45 -3.5,-5.69l0,0q-1.24,-0.44 -4.02,-0.44l0,0l-14.52,0z"/>
      <path id="svg_47" stroke-width="0.122" stroke="#000000" fill="#000000" d="m129.484858,232.988396l10.29,0l0,29.19q0,3.51 0.58,5.44q0.59,1.93 1.98,3.32l0,0q3.06,2.99 8.54,2.99l0,0q3.5,0 6.09,-1.2q2.59,-1.21 3.61,-3.25l0,0q1.02,-2.04 1.02,-7.3l0,0l0,-29.19l10.37,0l0,28.68q0,5.69 -1.2,9.38q-1.21,3.69 -3.69,5.95l0,0q-5.77,5.03 -16.35,5.03l0,0q-11.31,0 -16.5,-4.96l0,0q-2.7,-2.55 -3.72,-5.73q-1.02,-3.17 -1.02,-8.94l0,0l0,-29.41z"/>
      <path id="svg_48" stroke-width="0.122" stroke="#000000" fill="#000000" d="m205.616824,281.668396l-24.46,0l0,-8.69l22.27,0q5.32,0 7.08,-1.02l0,0q2.55,-1.53 2.55,-4.6l0,0q0,-3.57 -2.99,-5.18l0,0q-1.68,-0.95 -5.4,-0.95l0,0l-9.05,0q-8.25,0 -11.9,-2.99l0,0q-2.26,-1.9 -3.54,-4.74q-1.28,-2.85 -1.28,-6.14l0,0q0,-5.1 2.99,-9.34l0,0q2.92,-4.09 9.35,-4.82l0,0q2.19,-0.21 6.49,-0.21l0,0l24.16,0l0,8.68l-21.82,0q-4.89,0.07 -6.5,0.44l0,0q-3.28,0.8 -3.28,4.96l0,0q0,3.51 2.77,4.67l0,0q1.83,0.88 6.13,0.88l0,0l7.81,0q5.99,0 8.91,1.02l0,0q5.18,1.75 7.15,6.13l0,0q1.53,3.51 1.53,7.52l0,0q0,4.45 -2.04,7.96l0,0q-2.85,4.96 -8.54,5.98l0,0q-2.77,0.44 -8.39,0.44l0,0z"/>
      <path id="svg_49" stroke-width="0.122" stroke="#000000" fill="#000000" d="m242.914875,281.668396l0,-40l-15.48,0l0,-8.68l41.97,0l0,8.68l-16.13,0l0,40l-10.36,0z"/>
      <path id="svg_50" stroke-width="0.122" stroke="#000000" fill="#000000" d="m282.111034,281.668396l-12.12,0l20.14,-48.68l11.9,0l20.15,48.68l-12.12,0l-4.74,-11.24l-18.47,0l-4.74,11.24zm20.94,-19.93l-6.93,-17l-6.93,17l13.86,0z"/>
      <path id="svg_51" stroke-width="0.122" stroke="#000000" fill="#000000" d="m337.79981,281.668396l-10.37,0l0,-48.68l10.37,0l0,48.68z"/>
     </g>
    </svg>
   </g>
  </g>
 </g>
</svg>